#!OML:ASF \\sashay\E\basketball\basketball\Project 1\Capture day 1\Session 1\Subject.ASF
:FULLY-SPECIFIED
:DEGREES
264
root -31.1901 12.9926 9.98676 1.5166 -26.3552 -5.94586
lowerback 41.7082 0.680178 1.05237
upperback 13.2279 0.940019 3.04159
thorax -5.18143 0.100166 2.34394
lowerneck 4.00705 -11.1803 -14.9898
upperneck -24.2834 -11.6791 34.6126
head -4.01175 -7.93046 15.0009
rclavicle 1.15171e-014 -4.2366e-015
rhumerus -5.86884 -26.6013 -85.2996
rradius 54.7688
rwrist -38.1698
rhand -36.1584 49.1422
rfingers 7.12502
rthumb -9.26265 19.3657
lclavicle 1.15171e-014 -4.2366e-015
lhumerus -31.7653 26.7049 54.6062
lradius 47.8326
lwrist 47.9894
lhand -15.0235 17.6271
lfingers 7.12502
lthumb 11.1421 47.3113
rfemur -54.2434 -20.4133 19.9999
rtibia 81.4778
rfoot -9.06354 2.56264
rtoes -18.9382
lfemur -60.3469 26.8276 -13.383
ltibia 76.5482
lfoot -8.77426 -11.612
ltoes -11.579
265
root -31.2293 13.0176 10.0219 1.64797 -26.4805 -5.8402
lowerback 41.5404 0.720934 0.811248
upperback 13.2001 0.885936 2.92962
thorax -5.16448 0.0747319 2.36959
lowerneck 5.16448 -11.0859 -15.381
upperneck -25.0252 -11.4836 35.3532
head -4.38531 -7.99029 15.6336
rclavicle -6.21202e-016 -4.57205e-015
rhumerus -6.1054 -26.4092 -85.7855
rradius 55.008
rwrist -37.5309
rhand -36.5631 48.9201
rfingers 7.12502
rthumb -9.65313 19.1612
lclavicle -6.21202e-016 -4.57205e-015
lhumerus -31.9289 26.8329 54.7016
lradius 48.0222
lwrist 48.1305
lhand -15.1391 17.6678
lfingers 7.12502
lthumb 11.0306 47.358
rfemur -54.1351 -20.8712 20.1459
rtibia 81.2924
rfoot -10.029 2.38425
rtoes -20.1412
lfemur -60.0862 26.8668 -13.3402
ltibia 76.3303
lfoot -9.15341 -11.3627
ltoes -12.5276
266
root -31.2633 13.027 10.0566 1.81521 -26.6299 -5.92408
lowerback 41.4225 0.727736 0.784703
upperback 13.1578 0.875479 2.83835
thorax -5.17492 0.0737795 2.29026
lowerneck 6.54733 -10.5177 -16.1605
upperneck -26.1835 -10.5202 36.7102
head -5.06626 -7.72802 16.8722
rclavicle 8.05078e-015 6.10766e-014
rhumerus -6.11082 -26.3894 -86.0367
rradius 55.0468
rwrist -36.7035
rhand -36.6373 49.1665
rfingers 7.12502
rthumb -9.72469 19.411
lclavicle 8.05078e-015 6.10766e-014
lhumerus -32.0076 26.8657 54.8201
lradius 48.136
lwrist 47.9487
lhand -15.1039 17.7159
lfingers 7.12502
lthumb 11.0646 47.4042
rfemur -54.0048 -21.3881 20.4905
rtibia 81.0749
rfoot -10.8544 2.41485
rtoes -20.4062
lfemur -59.8832 27.007 -13.1053
ltibia 76.1596
lfoot -9.32995 -11.2588
ltoes -12.8704
267
root -31.2941 13.0477 10.088 2.05938 -26.7951 -5.97786
lowerback 41.1696 0.810725 0.758452
upperback 13.1322 0.964482 2.83996
thorax -5.13337 0.117447 2.27117
lowerneck 4.8092 -10.7601 -16.9052
upperneck -24.3615 -11.0918 37.2807
head -3.87613 -7.79962 16.7403
rclavicle -9.29318e-015 -1.15792e-014
rhumerus -5.89399 -26.4298 -85.9509
rradius 54.7486
rwrist -36.1478
rhand -36.3156 49.6084
rfingers 7.12502
rthumb -9.41437 19.8386
lclavicle -9.29318e-015 -1.15792e-014
lhumerus -31.8129 26.9721 55.2016
lradius 47.9705
lwrist 47.2806
lhand -14.8117 17.8409
lfingers 7.12502
lthumb 11.3464 47.514
rfemur -53.8411 -21.6406 20.829
rtibia 80.718
rfoot -11.5402 2.42973
rtoes -19.7851
lfemur -59.7422 27.2326 -12.9903
ltibia 75.9278
lfoot -9.4657 -11.2416
ltoes -12.8159
268
root -31.3267 13.0766 10.1169 2.21836 -26.8783 -5.72072
lowerback 40.7965 0.938164 0.427305
upperback 13.1826 0.989702 2.83897
thorax -4.9762 0.123609 2.43111
lowerneck 3.74013 -10.9175 -16.9986
upperneck -23.526 -11.3876 37.2904
head -3.32733 -7.82154 16.4913
rclavicle -2.7482e-014 -4.67144e-015
rhumerus -5.63086 -26.2695 -86.0332
rradius 54.4913
rwrist -36.0392
rhand -36.3574 49.5923
rfingers 7.12502
rthumb -9.45464 19.8244
lclavicle -2.7482e-014 -4.67144e-015
lhumerus -31.4471 26.9674 55.9434
lradius 48.1271
lwrist 48.608
lhand -16.4774 17.6287
lfingers 7.12502
lthumb 9.73956 47.3835
rfemur -53.6651 -21.8464 20.8851
rtibia 80.2775
rfoot -12.0586 2.46749
rtoes -19.4088
lfemur -59.6414 27.4414 -13.2732
ltibia 75.6359
lfoot -9.5531 -11.2348
ltoes -12.9097
269
root -31.3645 13.1022 10.1458 2.12404 -26.8301 -5.2815
lowerback 40.6196 1.04744 -0.0936316
upperback 13.2251 0.925291 2.81341
thorax -4.88425 0.0820667 2.69734
lowerneck 3.42614 -10.9258 -16.6512
upperneck -23.6034 -11.3397 37.0142
head -3.36763 -7.78353 16.28
rclavicle 4.37326e-015 3.27995e-015
rhumerus -5.46776 -26.1085 -86.2123
rradius 54.0073
rwrist -35.2407
rhand -36.7939 49.2708
rfingers 7.12502
rthumb -9.8758 19.5225
lclavicle 4.37326e-015 3.27995e-015
lhumerus -31.2667 27.7019 56.0534
lradius 47.509
lwrist 46.6957
lhand -15.0986 17.7537
lfingers 7.12502
lthumb 11.0696 47.4418
rfemur -53.247 -22.264 20.7163
rtibia 79.8099
rfoot -12.508 2.66977
rtoes -18.8435
lfemur -59.3356 27.5304 -13.6272
ltibia 75.3342
lfoot -9.70606 -11.2222
ltoes -13.6773
270
root -31.4127 13.1374 10.1726 1.91767 -26.578 -4.95562
lowerback 40.6888 1.09262 -0.511645
upperback 13.1906 0.832529 2.82729
thorax -4.94662 0.0292454 2.96308
lowerneck 2.18095 -11.0868 -16.7587
upperneck -22.5091 -11.6755 37.0766
head -2.70142 -7.79526 16.0211
rclavicle -3.37934e-014 1.49089e-014
rhumerus -5.43362 -26.0019 -86.2585
rradius 53.3708
rwrist -34.5135
rhand -37.3009 48.6202
rfingers 7.12502
rthumb -10.3649 18.8956
lclavicle -3.37934e-014 1.49089e-014
lhumerus -31.1515 27.3466 56.5187
lradius 47.6819
lwrist 47.7632
lhand -16.6185 18.1336
lfingers 7.12502
lthumb 9.60341 47.8947
rfemur -52.4613 -22.7404 20.596
rtibia 79.2629
rfoot -13.0314 2.81978
rtoes -17.5565
lfemur -58.7996 27.4232 -13.6984
ltibia 75.0266
lfoot -9.97368 -11.2471
ltoes -14.393
271
root -31.4336 13.1611 10.1922 2.12435 -26.851 -4.80421
lowerback 40.5424 1.24233 -0.707973
upperback 13.0282 0.938301 2.69429
thorax -5.08758 0.086433 2.88374
lowerneck 3.47089 -10.9351 -16.8892
upperneck -23.4191 -11.3757 37.5416
head -3.22826 -7.82502 16.5455
rclavicle -8.69683e-015 -1.99779e-014
rhumerus -5.59769 -25.8808 -86.2481
rradius 53.0105
rwrist -35.7019
rhand -36.8573 48.6077
rfingers 7.12502
rthumb -9.93696 18.8622
lclavicle -8.69683e-015 -1.99779e-014
lhumerus -31.0242 26.9242 56.7329
lradius 47.5343
lwrist 48.0119
lhand -16.4713 18.3988
lfingers 7.12502
lthumb 9.74547 48.1534
rfemur -52.3639 -22.645 20.7555
rtibia 78.7407
rfoot -13.1757 2.9612
rtoes -16.1526
lfemur -58.7658 27.5545 -13.7989
ltibia 74.8586
lfoot -10.1019 -11.02
ltoes -14.2901
272
root -31.4491 13.1802 10.2135 2.20549 -27.2444 -4.60113
lowerback 40.4369 1.44092 -1.21663
upperback 12.9435 0.993434 2.73384
thorax -5.16266 0.10011 3.16866
lowerneck 5.14959 -10.7143 -16.7639
upperneck -25.0248 -10.9475 37.0992
head -4.21298 -7.78191 16.7757
rclavicle -8.94531e-016 -3.67752e-014
rhumerus -5.69677 -25.4076 -86.1561
rradius 52.7225
rwrist -36.1863
rhand -36.134 49.2988
rfingers 7.12502
rthumb -9.23912 19.5212
lclavicle -8.94531e-016 -3.67752e-014
lhumerus -31.2274 27.0504 56.9735
lradius 47.3702
lwrist 47.8429
lhand -16.0435 18.3022
lfingers 7.12502
lthumb 10.1582 48.037
rfemur -52.2226 -22.4142 20.7683
rtibia 78.3422
rfoot -13.197 3.05239
rtoes -15.2943
lfemur -58.667 28.0379 -14.0406
ltibia 74.7842
lfoot -10.3448 -10.9359
ltoes -15.057
273
root -31.4646 13.1759 10.242 2.43844 -27.5295 -4.49164
lowerback 40.1745 1.55481 -1.15797
upperback 12.7961 1.13686 2.41381
thorax -5.24252 0.189917 2.74507
lowerneck 7.52754 -10.5013 -17.0435
upperneck -26.6387 -10.4767 38.3462
head -5.15083 -7.89388 18.046
rclavicle 3.01159e-014 1.91827e-014
rhumerus -6.02968 -26.331 -86.4804
rradius 52.5521
rwrist -33.6888
rhand -36.3843 49.5449
rfingers 7.12502
rthumb -9.4806 19.7781
lclavicle 3.01159e-014 1.91827e-014
lhumerus -30.8762 26.4054 56.9965
lradius 47.0776
lwrist 47.5518
lhand -15.7736 18.1242
lfingers 7.12502
lthumb 10.4186 47.846
rfemur -52.3799 -22.3915 20.8736
rtibia 78.2452
rfoot -13.3896 3.01549
rtoes -17.252
lfemur -58.8639 28.2672 -14.1869
ltibia 75.0218
lfoot -10.7475 -10.701
ltoes -16.2219
274
root -31.4879 13.1386 10.2757 2.67587 -27.6306 -4.63557
lowerback 39.976 1.54819 -1.22711
upperback 12.7943 1.10912 2.45885
thorax -5.18551 0.173284 2.84015
lowerneck 5.44403 -11.1018 -16.8509
upperneck -24.7629 -11.5629 37.6504
head -3.92983 -8.15139 16.9341
rclavicle 1.25234e-014 -1.19271e-014
rhumerus -5.92354 -26.2336 -86.5203
rradius 52.2278
rwrist -32.6088
rhand -36.2241 50.3585
rfingers 7.12502
rthumb -9.326 20.5848
lclavicle 1.25234e-014 -1.19271e-014
lhumerus -30.8324 26.7966 57.1788
lradius 46.9399
lwrist 47.1183
lhand -15.3014 18.4604
lfingers 7.12502
lthumb 10.874 48.1589
rfemur -52.5686 -22.6003 21.1576
rtibia 78.4065
rfoot -14.1197 2.63834
rtoes -21.699
lfemur -59.2138 28.3654 -13.9517
ltibia 75.5244
lfoot -10.9698 -10.6334
ltoes -16.5884
275
root -31.5089 13.0798 10.3125 2.77099 -27.7006 -4.77903
lowerback 39.9992 1.5237 -0.712363
upperback 12.7333 1.23716 2.06181
thorax -5.24286 0.264378 2.10439
lowerneck 4.61295 -11.3583 -15.7627
upperneck -24.1174 -11.8434 37.4493
head -3.62632 -8.27093 16.3992
rclavicle 4.25399e-014 2.67365e-014
rhumerus -6.1599 -27.1137 -86.9711
rradius 52.0871
rwrist -32.7866
rhand -35.2873 50.4806
rfingers 7.12502
rthumb -8.42203 20.6685
lclavicle 4.25399e-014 2.67365e-014
lhumerus -30.1883 25.9612 57.1337
lradius 46.9502
lwrist 47.262
lhand -15.1239 18.8479
lfingers 7.12502
lthumb 11.0453 48.5373
rfemur -52.7188 -22.7947 21.3178
rtibia 78.7034
rfoot -15.2401 1.87766
rtoes -25.6832
lfemur -59.5435 28.3827 -13.6142
ltibia 76.1107
lfoot -11.0432 -10.6158
ltoes -16.2116
276
root -31.5202 13.0837 10.3345 2.76398 -27.8352 -4.84169
lowerback 39.9843 1.48135 -1.01421
upperback 12.8261 1.08665 2.31218
thorax -5.14313 0.170033 2.58301
lowerneck 4.44744 -11.1688 -16.7827
upperneck -24.1086 -11.6631 37.8562
head -3.49698 -8.12577 16.8006
rclavicle -7.55382e-015 1.89839e-014
rhumerus -5.99861 -26.3774 -86.8309
rradius 51.8074
rwrist -32.5268
rhand -34.8383 50.2798
rfingers 7.12502
rthumb -7.98874 20.4508
lclavicle -7.55382e-015 1.89839e-014
lhumerus -30.6858 26.7182 57.439
lradius 47.2007
lwrist 47.194
lhand -15.383 18.6381
lfingers 7.12502
lthumb 10.7953 48.3407
rfemur -52.497 -22.6934 21.3556
rtibia 78.7147
rfoot -16.4233 0.76282
rtoes -27.8977
lfemur -59.4376 28.5342 -13.4328
ltibia 76.3599
lfoot -11.2018 -10.6813
ltoes -15.4991
277
root -31.5277 13.1327 10.3468 2.58881 -28.1546 -4.80792
lowerback 40.2231 1.59355 -1.11626
upperback 12.8608 1.16581 2.24747
thorax -5.18066 0.202589 2.53658
lowerneck 4.68822 -11.1463 -17.047
upperneck -24.4828 -11.5867 38.2403
head -3.6009 -8.1449 17.1204
rclavicle -9.34288e-015 -1.2424e-014
rhumerus -6.01521 -26.6633 -87.0229
rradius 51.6543
rwrist -31.7703
rhand -34.6138 49.9238
rfingers 7.12502
rthumb -7.77203 20.0866
lclavicle -9.34288e-015 -1.2424e-014
lhumerus -30.5336 26.7532 57.6439
lradius 47.1748
lwrist 47.1536
lhand -15.7499 18.4411
lfingers 7.12502
lthumb 10.4414 48.1619
rfemur -51.8684 -22.2214 21.1725
rtibia 78.6234
rfoot -16.323 1.21846
rtoes -28.2916
lfemur -58.8716 28.9586 -13.3688
ltibia 76.4504
lfoot -11.7084 -10.6811
ltoes -15.9212
